<?xml version="1.0" encoding="UTF-8"?>
<mxfile host="app.diagrams.net">
  <diagram name="문서 관리" id="0">
    <mxGraphModel dx="1378" dy="747" grid="1" gridSize="10" guides="1" tooltips="1" connect="1" arrows="1" fold="1" page="1" pageScale="1" pageWidth="827" pageHeight="1169" math="0" shadow="0">
      <root>
        <mxCell id="0" />
        <mxCell id="1" parent="0" />

        <!-- Actor: 관리자 -->
        <mxCell id="actor1" value="관리자" style="shape=umlActor;verticalLabelPosition=bottom;verticalAlign=top;" vertex="1" parent="1">
          <mxGeometry x="50" y="200" width="50" height="80" as="geometry" />
        </mxCell>

        <!-- Use Case: 문서 수정/삭제 -->
        <mxCell id="usecase1" value="문서 수정/삭제" style="ellipse;whiteSpace=wrap;html=1;" vertex="1" parent="1">
          <mxGeometry x="250" y="150" width="140" height="60" as="geometry" />
        </mxCell>

        <!-- Use Case: 결재 양식 관리 -->
        <mxCell id="usecase2" value="결재 양식 관리" style="ellipse;whiteSpace=wrap;html=1;" vertex="1" parent="1">
          <mxGeometry x="250" y="300" width="140" height="60" as="geometry" />
        </mxCell>

        <!-- 연결선: 관리자 -> 문서 수정/삭제 -->
        <mxCell id="edge1" edge="1" parent="1" source="actor1" target="usecase1">
          <mxGeometry relative="1" as="geometry" />
        </mxCell>

        <!-- 연결선: 관리자 -> 결재 양식 관리 -->
        <mxCell id="edge2" edge="1" parent="1" source="actor1" target="usecase2">
          <mxGeometry relative="1" as="geometry" />
        </mxCell>

      </root>
    </mxGraphModel>
  </diagram>
</mxfile>
